<svg width="38" height="38" viewBox="0 0 38 38" fill="none" xmlns="http://www.w3.org/2000/svg">
<circle cx="19.0003" cy="19" r="13.3333" fill="#FEAE1B"/>
<path d="M14.5553 18.4445H17.8886C18.1958 18.4445 18.4441 18.1961 18.4441 17.8889V14.5556C18.4441 14.2483 18.1958 14 17.8886 14H14.5553C14.248 14 13.9997 14.2483 13.9997 14.5556V17.8889C13.9997 18.1961 14.248 18.4445 14.5553 18.4445ZM14.5553 24H17.8886C18.1958 24 18.4441 23.7517 18.4441 23.4445V20.1111C18.4441 19.8039 18.1958 19.5556 17.8886 19.5556H14.5553C14.248 19.5556 13.9997 19.8039 13.9997 20.1111V23.4445C13.9997 23.7517 14.248 24 14.5553 24ZM20.1108 24H23.4441C23.7514 24 23.9997 23.7517 23.9997 23.4445V20.1111C23.9997 19.8039 23.7514 19.5556 23.4441 19.5556H20.1108C19.8036 19.5556 19.5553 19.8039 19.5553 20.1111V23.4445C19.5553 23.7517 19.8036 24 20.1108 24ZM24.1625 15.8295L22.1703 13.8372C21.953 13.62 21.6019 13.62 21.3847 13.8372L19.3925 15.8295C19.1753 16.0467 19.1753 16.3978 19.3925 16.615L21.3847 18.6072C21.6019 18.8245 21.953 18.8245 22.1703 18.6072L24.1625 16.615C24.3797 16.3978 24.3797 16.0467 24.1625 15.8295Z" fill="white"/>
</svg>
